<?xml version="1.0" encoding="UTF-8" standalone="no" ?>
<!DOCTYPE svg PUBLIC "-//W3C//DTD SVG 1.1//EN" "http://www.w3.org/Graphics/SVG/1.1/DTD/svg11.dtd">
<svg xmlns="http://www.w3.org/2000/svg" xmlns:xlink="http://www.w3.org/1999/xlink" version="1.1" width="23.22" height="5.8" viewBox="0 0 23.22 5.8" xml:space="preserve">
<desc>Created with Fabric.js 4.6.0</desc>
<defs>
</defs>
<g transform="matrix(1 0 0 1 11.61 2.9)" id="j4gzfijXWgDUkjD9Yi0HE"  >
<g style="" vector-effect="non-scaling-stroke"   >
		<g transform="matrix(3.95 0 0 3.61 9.16 0)" id="CN8raVOWcBrIQPfr4qaUv"  >
<linearGradient id="SVGID_6" gradientUnits="userSpaceOnUse" gradientTransform="matrix(0.95 0 0 0.95 0.95 9.41)"  x1="2.5249364" y1="2.8714643" x2="6.7197294" y2="2.8714643">
<stop offset="0%" style="stop-color:rgb(150,180,0);stop-opacity: 1"/>
<stop offset="0%" style="stop-color:rgb(150,180,0);stop-opacity: 1"/>
<stop offset="0%" style="stop-color:rgb(150,180,0);stop-opacity: 1"/>
<stop offset="0%" style="stop-color:rgb(150,180,0);stop-opacity: 1"/>
<stop offset="100%" style="stop-color:rgb(150,180,255);stop-opacity: 1"/>
<stop offset="100%" style="stop-color:rgb(150,180,255);stop-opacity: 1"/>
<stop offset="100%" style="stop-color:rgb(150,180,255);stop-opacity: 1"/>
<stop offset="100%" style="stop-color:rgb(150,180,255);stop-opacity: 1"/>
</linearGradient>
<path style="stroke: rgb(0,0,0); stroke-opacity: 0; stroke-width: 0.05; stroke-dasharray: none; stroke-linecap: square; stroke-dashoffset: 0; stroke-linejoin: bevel; stroke-miterlimit: 4; fill: url(#SVGID_6); fill-rule: nonzero; opacity: 1;" vector-effect="non-scaling-stroke"  paint-order="stroke"  transform=" translate(-9.08, -12.26)" d="M 8.8400861 12.460337 L 8.8400861 13.040596 L 8.4867989 13.040596 L 8.4867989 11.514948 L 8.8400861 11.514948 L 8.8400861 11.676789000000001 Q 8.913112100000001 11.580079000000001 9.0019272 11.534684 Q 9.090742200000001 11.488304000000001 9.206202300000001 11.488304000000001 Q 9.410477300000002 11.488304000000001 9.541726500000001 11.651132 Q 9.672975300000001 11.812973000000001 9.672975300000001 12.068564 Q 9.672975300000001 12.324154 9.541726500000001 12.486982000000001 Q 9.410477300000002 12.648823000000002 9.206202300000001 12.648823000000002 Q 9.090742500000001 12.648823000000002 9.0019272 12.603433000000003 Q 8.9131122 12.557053000000003 8.8400861 12.460342000000002 z M 9.0749531 11.744881000000001 Q 8.9614669 11.744881000000001 8.9002831 11.828761000000002 Q 8.840086099999999 11.911651000000003 8.840086099999999 12.068562000000002 Q 8.840086099999999 12.225469000000002 8.9002831 12.309350000000002 Q 8.9614671 12.392240000000003 9.0749531 12.392240000000003 Q 9.1884392 12.392240000000003 9.2476494 12.309350000000002 Q 9.3078464 12.226460000000001 9.3078464 12.068562000000002 Q 9.3078464 11.910668000000001 9.2476494 11.827774000000002 Q 9.1884394 11.744884 9.0749531 11.744884 z" stroke-linecap="round" />
</g>
		<g transform="matrix(3.95 0 0 3.61 4.06 -0.71)" id="4ML_dca9cR4eFuLb0At6a"  >
<linearGradient id="SVGID_7" gradientUnits="userSpaceOnUse" gradientTransform="matrix(0.95 0 0 0.95 1.14 9.41)"  x1="2.5249364" y1="2.8714643" x2="6.7197294" y2="2.8714643">
<stop offset="0%" style="stop-color:rgb(150,180,0);stop-opacity: 1"/>
<stop offset="0%" style="stop-color:rgb(150,180,0);stop-opacity: 1"/>
<stop offset="0%" style="stop-color:rgb(150,180,0);stop-opacity: 1"/>
<stop offset="0%" style="stop-color:rgb(150,180,0);stop-opacity: 1"/>
<stop offset="100%" style="stop-color:rgb(150,180,255);stop-opacity: 1"/>
<stop offset="100%" style="stop-color:rgb(150,180,255);stop-opacity: 1"/>
<stop offset="100%" style="stop-color:rgb(150,180,255);stop-opacity: 1"/>
<stop offset="100%" style="stop-color:rgb(150,180,255);stop-opacity: 1"/>
</linearGradient>
<path style="stroke: rgb(0,0,0); stroke-opacity: 0; stroke-width: 0.05; stroke-dasharray: none; stroke-linecap: square; stroke-dashoffset: 0; stroke-linejoin: bevel; stroke-miterlimit: 4; fill: url(#SVGID_7); fill-rule: nonzero; opacity: 1;" vector-effect="non-scaling-stroke"  paint-order="stroke"  transform=" translate(-7.79, -12.07)" d="M 7.8096966 12.122839 Q 7.699171 12.122839 7.6429214 12.160339 Q 7.5876584 12.197839 7.5876584 12.270865 Q 7.5876584 12.337965 7.632066399999999 12.376456000000001 Q 7.677460399999999 12.413956 7.757394499999999 12.413956 Q 7.857064499999999 12.413956 7.925156599999999 12.342906000000001 Q 7.993248599999999 12.270866000000002 7.993248599999999 12.163302000000002 L 7.993248599999999 12.122842000000002 z M 8.349495899999999 11.989616000000002 L 8.349495899999999 12.620204000000001 L 7.9932481 12.620204000000001 L 7.9932481 12.456389000000001 Q 7.9221961 12.557046000000001 7.833380699999999 12.603428000000001 Q 7.744565699999999 12.648818 7.617263599999999 12.648818 Q 7.445554199999999 12.648818 7.3379891 12.549148 Q 7.2314108 12.448491 7.2314108 12.288623000000001 Q 7.2314108 12.094216000000001 7.3646336 12.003428000000001 Q 7.498843300000001 11.912638000000001 7.7850257 11.912638000000001 L 7.993248100000001 11.912638000000001 L 7.993248100000001 11.885008000000001 Q 7.993248100000001 11.801128 7.9271301 11.762641 Q 7.8610121 11.723171 7.720881400000001 11.723171 Q 7.6073953 11.723171 7.509698500000001 11.745871000000001 Q 7.412001500000001 11.768571000000001 7.3281207 11.813961 L 7.3281207 11.544555 Q 7.441606800000001 11.516925 7.5560798 11.503105000000001 Q 7.6705528 11.488305000000002 7.7850257 11.488305000000002 Q 8.084037 11.488305000000002 8.216273000000001 11.606725000000003 Q 8.3494959 11.724159000000002 8.3494959 11.989618000000002 z" stroke-linecap="round" />
</g>
		<g transform="matrix(3.95 0 0 3.61 -0.14 -0.76)" id="2mQ7X12uIVV5FNIQQwbTX"  >
<linearGradient id="SVGID_8" gradientUnits="userSpaceOnUse" gradientTransform="matrix(0.95 0 0 0.95 1.14 9.41)"  x1="2.5249364" y1="2.8714643" x2="6.7197294" y2="2.8714643">
<stop offset="0%" style="stop-color:rgb(150,180,0);stop-opacity: 1"/>
<stop offset="0%" style="stop-color:rgb(150,180,0);stop-opacity: 1"/>
<stop offset="0%" style="stop-color:rgb(150,180,0);stop-opacity: 1"/>
<stop offset="0%" style="stop-color:rgb(150,180,0);stop-opacity: 1"/>
<stop offset="100%" style="stop-color:rgb(150,180,255);stop-opacity: 1"/>
<stop offset="100%" style="stop-color:rgb(150,180,255);stop-opacity: 1"/>
<stop offset="100%" style="stop-color:rgb(150,180,255);stop-opacity: 1"/>
<stop offset="100%" style="stop-color:rgb(150,180,255);stop-opacity: 1"/>
</linearGradient>
<path style="stroke: rgb(0,0,0); stroke-opacity: 0; stroke-width: 0.05; stroke-dasharray: none; stroke-linecap: square; stroke-dashoffset: 0; stroke-linejoin: bevel; stroke-miterlimit: 4; fill: url(#SVGID_8); fill-rule: nonzero; opacity: 1;" vector-effect="non-scaling-stroke"  paint-order="stroke"  transform=" translate(-6.73, -12.05)" d="M 7.1384057 11.815933 Q 7.0920247 11.794222999999999 7.0456427 11.784353 Q 7.0002487 11.773493 6.9538667 11.773493 Q 6.8176834 11.773493 6.7436707 11.861323 Q 6.6706447 11.948163000000001 6.6706447 12.110993 L 6.6706447 12.6202 L 6.3173583 12.6202 L 6.3173583 11.514944 L 6.670645500000001 11.514944 L 6.670645500000001 11.696522 Q 6.738737500000001 11.58797 6.826565600000001 11.538628 Q 6.9153806000000015 11.488297999999999 7.038735300000001 11.488297999999999 Q 7.056498300000001 11.488297999999999 7.077222300000001 11.490298 Q 7.097946300000001 11.491285 7.1374193 11.496198 z" stroke-linecap="round" />
</g>
		<g transform="matrix(3.95 0 0 3.61 -4.79 -0.71)" id="-tsePfNP2MnquX_Vk-elo"  >
<linearGradient id="SVGID_9" gradientUnits="userSpaceOnUse" gradientTransform="matrix(0.95 0 0 0.95 1.24 9.41)"  x1="2.5249364" y1="2.8714643" x2="6.7197294" y2="2.8714643">
<stop offset="0%" style="stop-color:rgb(150,180,0);stop-opacity: 1"/>
<stop offset="0%" style="stop-color:rgb(150,180,0);stop-opacity: 1"/>
<stop offset="0%" style="stop-color:rgb(150,180,0);stop-opacity: 1"/>
<stop offset="0%" style="stop-color:rgb(150,180,0);stop-opacity: 1"/>
<stop offset="100%" style="stop-color:rgb(150,180,255);stop-opacity: 1"/>
<stop offset="100%" style="stop-color:rgb(150,180,255);stop-opacity: 1"/>
<stop offset="100%" style="stop-color:rgb(150,180,255);stop-opacity: 1"/>
<stop offset="100%" style="stop-color:rgb(150,180,255);stop-opacity: 1"/>
</linearGradient>
<path style="stroke: rgb(0,0,0); stroke-opacity: 0; stroke-width: 0.05; stroke-dasharray: none; stroke-linecap: square; stroke-dashoffset: 0; stroke-linejoin: bevel; stroke-miterlimit: 4; fill: url(#SVGID_9); fill-rule: nonzero; opacity: 1;" vector-effect="non-scaling-stroke"  paint-order="stroke"  transform=" translate(-5.55, -12.07)" d="M 5.5513326 11.740933 Q 5.4338992 11.740933 5.371728500000001 11.825803 Q 5.310544500000001 11.909683000000001 5.310544500000001 12.068565000000001 Q 5.310544500000001 12.227445000000001 5.371728500000001 12.312313000000001 Q 5.433899500000001 12.396193000000002 5.5513326 12.396193000000002 Q 5.666792500000001 12.396193000000002 5.7279763 12.312313000000001 Q 5.7891603 12.227443000000001 5.7891603 12.068565000000001 Q 5.7891603 11.909684000000002 5.7279763 11.825803 Q 5.6667923 11.740933 5.5513326 11.740933 z M 5.5513326 11.488303 Q 5.8365282 11.488303 5.9963956000000005 11.64225 Q 6.1572499 11.796196 6.1572499 12.068563000000001 Q 6.1572499 12.340929000000001 5.9963956 12.494876000000001 Q 5.8365282 12.648822000000001 5.551332599999999 12.648822000000001 Q 5.265150199999999 12.648822000000001 5.1033091 12.494876000000001 Q 4.9424548999999995 12.340929000000001 4.9424548999999995 12.068563000000001 Q 4.9424548999999995 11.796196000000002 5.1033091 11.64225 Q 5.2651502 11.488303 5.551332599999999 11.488303 z" stroke-linecap="round" />
</g>
		<g transform="matrix(3.95 0 0 3.61 -9.52 -0.71)" id="qfgBqFvKoeQNVWM-H7CCv"  >
<linearGradient id="SVGID_10" gradientUnits="userSpaceOnUse" gradientTransform="matrix(0.95 0 0 0.95 1.33 9.41)"  x1="2.5249364" y1="2.8714643" x2="6.7197294" y2="2.8714643">
<stop offset="0%" style="stop-color:rgb(150,180,0);stop-opacity: 1"/>
<stop offset="0%" style="stop-color:rgb(150,180,0);stop-opacity: 1"/>
<stop offset="0%" style="stop-color:rgb(150,180,0);stop-opacity: 1"/>
<stop offset="0%" style="stop-color:rgb(150,180,0);stop-opacity: 1"/>
<stop offset="100%" style="stop-color:rgb(150,180,255);stop-opacity: 1"/>
<stop offset="100%" style="stop-color:rgb(150,180,255);stop-opacity: 1"/>
<stop offset="100%" style="stop-color:rgb(150,180,255);stop-opacity: 1"/>
<stop offset="100%" style="stop-color:rgb(150,180,255);stop-opacity: 1"/>
</linearGradient>
<path style="stroke: rgb(0,0,0); stroke-opacity: 0; stroke-width: 0.05; stroke-dasharray: none; stroke-linecap: square; stroke-dashoffset: 0; stroke-linejoin: bevel; stroke-miterlimit: 4; fill: url(#SVGID_10); fill-rule: nonzero; opacity: 1;" vector-effect="non-scaling-stroke"  paint-order="stroke"  transform=" translate(-4.35, -12.07)" d="M 4.7810846 11.549487 L 4.7810846 11.817905999999999 Q 4.6675984 11.770538 4.562007 11.746854 Q 4.4564155 11.72317 4.3626661 11.72317 Q 4.2620089000000005 11.72317 4.2126671 11.74883 Q 4.1643121 11.7735 4.1643121 11.8258 Q 4.1643121 11.868229999999999 4.2008251 11.890929999999999 Q 4.2383251 11.91363 4.334048 11.924479999999999 L 4.396219 11.93338 Q 4.667598900000001 11.96792 4.7613483 12.046866 Q 4.8550973 12.125816 4.8550973 12.294561999999999 Q 4.8550973 12.471205999999999 4.724835 12.560020999999999 Q 4.5945727 12.648831 4.3360217 12.648831 Q 4.2264829 12.648831 4.1090494 12.631070999999999 Q 3.9926028 12.614290999999998 3.8692482999999998 12.579750999999998 L 3.8692482999999998 12.311330999999997 Q 3.9748396999999995 12.362650999999998 4.085365299999999 12.388300999999997 Q 4.196877799999999 12.413960999999997 4.3113508 12.413960999999997 Q 4.4149685 12.413960999999997 4.4672708 12.385340999999997 Q 4.5195728 12.356720999999997 4.5195728 12.300470999999996 Q 4.5195728 12.253100999999996 4.4830597999999995 12.230410999999997 Q 4.4475337999999995 12.206730999999996 4.3399686 12.193900999999997 L 4.2777975999999995 12.186000999999997 Q 4.041943799999999 12.156390999999998 3.9472075999999996 12.076461999999998 Q 3.8524715999999994 11.996531999999998 3.8524715999999994 11.833700999999998 Q 3.8524715999999994 11.658043999999999 3.9728654999999993 11.573175999999998 Q 4.093259499999999 11.488305999999998 4.341942199999999 11.488305999999998 Q 4.439639199999999 11.488305999999998 4.547203999999999 11.503105999999997 Q 4.654769199999999 11.517905999999996 4.781084199999999 11.549485999999996 z" stroke-linecap="round" />
</g>
</g>
</g>
</svg>