<?xml version="1.0" encoding="UTF-8" standalone="no"?>
<!-- Created with Inkscape (http://www.inkscape.org/) -->

<svg
   height="9.2644548mm"
   id="svg5"
   inkscape:version="1.2.1 (9c6d41e410, 2022-07-14)"
   sodipodi:docname="Logo_black_nonstop.svg"
   version="1.1"
   viewBox="0 0 7.1520887 9.2644543"
   width="7.1520891mm"
   xmlns:inkscape="http://www.inkscape.org/namespaces/inkscape"
   xmlns:sodipodi="http://sodipodi.sourceforge.net/DTD/sodipodi-0.dtd"
   xmlns:xlink="http://www.w3.org/1999/xlink"
   xmlns="http://www.w3.org/2000/svg"
   xmlns:svg="http://www.w3.org/2000/svg">
  <sodipodi:namedview
     bordercolor="#000000"
     borderopacity="0.25"
     id="namedview7"
     inkscape:current-layer="layer2"
     inkscape:cx="-1.1269514"
     inkscape:cy="21.743534"
     inkscape:deskcolor="#d1d1d1"
     inkscape:document-units="mm"
     inkscape:lockguides="true"
     inkscape:pagecheckerboard="0"
     inkscape:pageopacity="0.0"
     inkscape:showpageshadow="2"
     inkscape:window-height="1369"
     inkscape:window-maximized="1"
     inkscape:window-width="2560"
     inkscape:window-x="-8"
     inkscape:window-y="-8"
     inkscape:zoom="22.627417"
     pagecolor="#ffffff"
     showgrid="false"
     showguides="false"
     inkscape:pageshadow="2" />
  <defs
     id="defs2">
    <linearGradient
       id="linearGradient9109"
       inkscape:collect="always">
      <stop
         id="stop9105"
         offset="0"
         style="stop-color:#96b400;stop-opacity:1;" />
      <stop
         id="stop9107"
         offset="1"
         style="stop-color:#96b4ff;stop-opacity:1;" />
    </linearGradient>
    <rect
       height="17.5625"
       id="rect8006"
       width="19.0625"
       x="20.5625"
       y="26.625" />
    <rect
       height="5.25"
       id="rect8000"
       width="6.0625"
       x="10.3125"
       y="18.0625" />
    <linearGradient
       id="linearGradient6655"
       inkscape:swatch="solid">
      <stop
         id="stop6653"
         offset="0"
         style="stop-color:#000000;stop-opacity:1;" />
    </linearGradient>
    <linearGradient
       gradientTransform="matrix(0.95482132,0,0,0.95482132,1.3320947,9.4149634)"
       gradientUnits="userSpaceOnUse"
       id="linearGradient9111"
       inkscape:collect="always"
       x1="2.5249364"
       x2="6.7197294"
       xlink:href="#linearGradient9109"
       y1="2.8714643"
       y2="2.8714643">
      <stop
         id="stop10"
         offset="0"
         style="stop-color:#96b400;stop-opacity:1;" />
      <stop
         id="stop12"
         offset="1"
         style="stop-color:#96b4ff;stop-opacity:1;" />
    </linearGradient>
  </defs>
  <g
     id="layer1"
     inkscape:groupmode="layer"
     inkscape:label="Layer 1"
     style="display:none"
     transform="translate(705.32036,875.11804)">
    <g
       aria-label="sorap"
       transform="matrix(1.0458917,0,0,0.95612193,-708.23078,-876.17637)"
       id="text8063"
       style="font-weight:bold;font-size:2.02104px;font-family:Calibri;-inkscape-font-specification:'Calibri Bold';display:inline;fill:url(#linearGradient9111);stroke:#000000;stroke-width:0.0529167;stroke-linecap:square;stroke-linejoin:bevel;stroke-miterlimit:0;stroke-opacity:0;paint-order:stroke markers fill">
      <path
         d="m 4.7810846,11.549487 v 0.268419 Q 4.6675984,11.770538 4.562007,11.746854 4.4564155,11.72317 4.3626661,11.72317 q -0.1006572,0 -0.149999,0.02566 -0.048355,0.02467 -0.048355,0.07697 0,0.04243 0.036513,0.06513 0.0375,0.0227 0.1332229,0.03355 l 0.062171,0.0089 q 0.2713799,0.03454 0.3651293,0.113486 0.093749,0.07895 0.093749,0.247696 0,0.176644 -0.1302623,0.265459 -0.1302623,0.08881 -0.3888133,0.08881 -0.1095388,0 -0.2269723,-0.01776 -0.1164466,-0.01678 -0.2398011,-0.05132 v -0.26842 q 0.1055914,0.05132 0.216117,0.07697 0.1115125,0.02566 0.2259855,0.02566 0.1036177,0 0.15592,-0.02862 0.052302,-0.02862 0.052302,-0.08487 0,-0.04737 -0.036513,-0.07006 -0.035526,-0.02368 -0.1430912,-0.03651 l -0.062171,-0.0079 q -0.2358538,-0.02961 -0.33059,-0.109539 -0.094736,-0.07993 -0.094736,-0.242761 0,-0.175657 0.1203939,-0.260525 0.120394,-0.08487 0.3690767,-0.08487 0.097697,0 0.2052618,0.0148 0.1075652,0.0148 0.2338802,0.04638 z"
         id="path38" />
      <path
         d="m 5.6465396,11.740933 q -0.1174334,0 -0.1796041,0.08487 -0.061184,0.08388 -0.061184,0.242762 0,0.15888 0.061184,0.243748 0.062171,0.08388 0.1796041,0.08388 0.1154599,0 0.1766437,-0.08388 0.061184,-0.08487 0.061184,-0.243748 0,-0.158881 -0.061184,-0.242762 -0.061184,-0.08487 -0.1766437,-0.08487 z m 0,-0.25263 q 0.2851956,0 0.445063,0.153947 0.1608543,0.153946 0.1608543,0.426313 0,0.272366 -0.1608543,0.426313 -0.1598674,0.153946 -0.445063,0.153946 -0.2861824,0 -0.4480235,-0.153946 -0.1608542,-0.153947 -0.1608542,-0.426313 0,-0.272367 0.1608542,-0.426313 0.1618411,-0.153947 0.4480235,-0.153947 z"
         id="path40" />
      <path
         d="m 7.3300817,11.815933 q -0.046381,-0.02171 -0.092763,-0.03158 -0.045394,-0.01086 -0.091776,-0.01086 -0.1361833,0 -0.210196,0.08783 -0.073026,0.08684 -0.073026,0.24967 v 0.509207 H 6.5090343 v -1.105256 h 0.3532872 v 0.181578 q 0.068092,-0.108552 0.1559201,-0.157894 0.088815,-0.05033 0.2121697,-0.05033 0.017763,0 0.038487,0.002 0.020724,9.87e-4 0.060197,0.0059 z"
         id="path42" />
      <path
         d="m 8.0011302,12.122839 q -0.1105256,0 -0.1667752,0.0375 -0.055263,0.0375 -0.055263,0.110526 0,0.0671 0.044408,0.105591 0.045394,0.0375 0.1253281,0.0375 0.09967,0 0.1677621,-0.07105 0.068092,-0.07204 0.068092,-0.179604 v -0.04046 z m 0.5397993,-0.133223 v 0.630588 H 8.1846817 v -0.163815 q -0.071052,0.100657 -0.1598674,0.147039 -0.088815,0.04539 -0.2161171,0.04539 -0.1717094,0 -0.2792745,-0.09967 -0.1065783,-0.100657 -0.1065783,-0.260525 0,-0.194407 0.1332228,-0.285195 0.1342097,-0.09079 0.4203921,-0.09079 h 0.2082224 v -0.02763 q 0,-0.08388 -0.066118,-0.122367 -0.066118,-0.03947 -0.2062487,-0.03947 -0.1134861,0 -0.2111829,0.0227 -0.097697,0.0227 -0.1815778,0.06809 v -0.269406 q 0.1134861,-0.02763 0.2279591,-0.04145 0.114473,-0.0148 0.2289459,-0.0148 0.2990113,0 0.4312473,0.11842 0.1332229,0.117434 0.1332229,0.382893 z"
         id="path44" />
      <path
         d="m 9.2228328,12.460337 v 0.580259 H 8.8695456 v -1.525648 h 0.3532872 v 0.161841 q 0.073026,-0.09671 0.1618411,-0.142105 0.088815,-0.04638 0.2042751,-0.04638 0.204275,0 0.3355242,0.162828 0.1312488,0.161841 0.1312488,0.417432 0,0.25559 -0.1312488,0.418418 -0.1312492,0.161841 -0.3355242,0.161841 -0.1154598,0 -0.2042751,-0.04539 -0.088815,-0.04638 -0.1618411,-0.143091 z m 0.234867,-0.715456 q -0.1134862,0 -0.17467,0.08388 -0.060197,0.08289 -0.060197,0.239801 0,0.156907 0.060197,0.240788 0.061184,0.08289 0.17467,0.08289 0.1134861,0 0.1726963,-0.08289 0.060197,-0.08289 0.060197,-0.240788 0,-0.157894 -0.060197,-0.240788 -0.05921,-0.08289 -0.1726963,-0.08289 z"
         id="path46" />
    </g>
  </g>
  <g
     id="layer2"
     inkscape:groupmode="layer"
     inkscape:label="Layer 2"
     style="display:inline"
     transform="translate(-2.9104167,-1.0583333)">
    <g
       id="g11844"
       style="fill:#000000;fill-opacity:0;stroke:#000000;stroke-opacity:1">
      <path
         d="m 3.2412247,2.0678845 c 0.740833,-0.7408331 0.740833,-0.7408331 0.740833,-0.7408331 v 0"
         id="path11812"
         style="fill:#000000;fill-opacity:0;stroke:#000000;stroke-width:0.529167;stroke-linecap:round;stroke-linejoin:round;stroke-miterlimit:1.3;stroke-dasharray:none;stroke-opacity:1;paint-order:markers fill stroke" />
      <path
         d="M 8.9231514,2.1604883 C 9.6639849,1.4196557 9.6639849,1.4196557 9.6639849,1.4196557 v 0"
         id="path11814"
         style="display:inline;fill:#000000;fill-opacity:0;stroke:#000000;stroke-width:0.529167;stroke-linecap:round;stroke-linejoin:round;stroke-miterlimit:1.3;stroke-dasharray:none;stroke-opacity:1;paint-order:markers fill stroke" />
      <path
         d="M 9.0306387,10.031842 C 9.7714723,9.2910096 9.7714723,9.2910096 9.7714723,9.2910096 v 0"
         id="path11816"
         style="display:inline;fill:#000000;fill-opacity:0;stroke:#000000;stroke-width:0.529167;stroke-linecap:round;stroke-linejoin:round;stroke-miterlimit:1.3;stroke-dasharray:none;stroke-opacity:1;paint-order:markers fill stroke" />
      <path
         id="rect11818"
         style="display:inline;stroke-width:0.529167;stroke-linecap:round;stroke-linejoin:round;stroke-miterlimit:0;paint-order:fill markers stroke"
         d="m 3.2014585,2.1207128 h 5.7679166 c 0.014658,0 0.026458,0.0118 0.026458,0.026458 v 7.8845749 c 0,0.01466 -0.0118,0.02646 -0.026458,0.02646 H 3.2014585 c -0.014658,0 -0.026458,-0.0118 -0.026458,-0.02646 V 2.1471711 c 0,-0.014658 0.0118,-0.026458 0.026458,-0.026458 z" />
      <path
         id="circle11820"
         style="stroke-width:0.529167;stroke-linecap:square;stroke-linejoin:bevel;stroke-miterlimit:0;paint-order:fill markers stroke"
         d="M 6.3500702,6.0895562 A 0.26458332,0.26458332 0 0 1 6.0854869,6.3541395 0.26458332,0.26458332 0 0 1 5.8209036,6.0895562 0.26458332,0.26458332 0 0 1 6.0854869,5.8249729 0.26458332,0.26458332 0 0 1 6.3500702,6.0895562 Z" />
      <path
         d="m 3.9874325,1.3229171 5.7960278,-3e-7"
         id="path11822"
         style="fill:#000000;fill-opacity:0;stroke:#000000;stroke-width:0.529167;stroke-linecap:round;stroke-miterlimit:0;stroke-dasharray:none;stroke-opacity:1;paint-order:markers fill stroke" />
      <path
         d="m 9.7813923,9.266158 0.01653,-7.9292328"
         id="path11824"
         style="display:inline;fill:#000000;fill-opacity:0;stroke:#000000;stroke-width:0.529167;stroke-linecap:round;stroke-miterlimit:0;stroke-dasharray:none;stroke-opacity:1;paint-order:markers fill stroke" />
      <path
         d="m 3.2412247,2.0678845 c 0.740833,-0.7408331 0.740833,-0.7408331 0.740833,-0.7408331 v 0"
         id="path11826"
         style="fill:#000000;fill-opacity:0;stroke:#000000;stroke-width:0.529167;stroke-linecap:round;stroke-linejoin:round;stroke-miterlimit:1.3;stroke-dasharray:none;stroke-opacity:1;paint-order:fill markers stroke" />
      <path
         d="M 8.9231514,2.1604883 C 9.6639849,1.4196557 9.6639849,1.4196557 9.6639849,1.4196557 v 0"
         id="path11828"
         style="display:inline;fill:#000000;fill-opacity:0;stroke:#000000;stroke-width:0.529167;stroke-linecap:round;stroke-linejoin:round;stroke-miterlimit:1.3;stroke-dasharray:none;stroke-opacity:1;paint-order:fill markers stroke" />
      <path
         d="M 9.0306387,10.031842 C 9.7714723,9.2910096 9.7714723,9.2910096 9.7714723,9.2910096 v 0"
         id="path11830"
         style="display:inline;fill:#000000;fill-opacity:0;stroke:#000000;stroke-width:0.529167;stroke-linecap:round;stroke-linejoin:round;stroke-miterlimit:1.3;stroke-dasharray:none;stroke-opacity:1;paint-order:fill markers stroke" />
      <path
         id="rect11832"
         style="display:inline;stroke-width:0.529167;stroke-linecap:round;stroke-linejoin:round;stroke-miterlimit:0;paint-order:fill markers stroke"
         d="m 3.2014585,2.1207128 h 5.7679166 c 0.014658,0 0.026458,0.0118 0.026458,0.026458 v 7.8845749 c 0,0.01466 -0.0118,0.02646 -0.026458,0.02646 H 3.2014585 c -0.014658,0 -0.026458,-0.0118 -0.026458,-0.02646 V 2.1471711 c 0,-0.014658 0.0118,-0.026458 0.026458,-0.026458 z" />
      <path
         id="circle11834"
         style="stroke-width:0.529167;stroke-linecap:round;stroke-linejoin:round;stroke-miterlimit:0;paint-order:fill markers stroke"
         d="M 6.3500702,6.0895562 A 0.26458332,0.26458332 0 0 1 6.0854869,6.3541395 0.26458332,0.26458332 0 0 1 5.8209036,6.0895562 0.26458332,0.26458332 0 0 1 6.0854869,5.8249729 0.26458332,0.26458332 0 0 1 6.3500702,6.0895562 Z" />
      <path
         d="m 3.9874325,1.3229171 5.7960278,-3e-7"
         id="path11836"
         style="fill:#000000;fill-opacity:0;stroke:#000000;stroke-width:0.529167;stroke-linecap:round;stroke-miterlimit:0;stroke-dasharray:none;stroke-opacity:1;paint-order:fill markers stroke" />
      <path
         d="m 5.2916668,4.7707612 3.7041664,-3e-7"
         id="path11838"
         style="display:inline;fill:#000000;fill-opacity:0;stroke:#000000;stroke-width:0.529167;stroke-linecap:round;stroke-miterlimit:0;stroke-dasharray:none;stroke-opacity:1;paint-order:fill markers stroke" />
      <path
         d="m 3.1750002,7.4133887 3.7041663,-3e-7"
         id="path11840"
         style="display:inline;fill:#000000;fill-opacity:0;stroke:#000000;stroke-width:0.529167;stroke-linecap:round;stroke-miterlimit:0;stroke-dasharray:none;stroke-opacity:1;paint-order:fill markers stroke" />
      <path
         d="m 9.7813923,9.266158 0.01653,-7.9292328"
         id="path11842"
         style="display:inline;fill:#000000;fill-opacity:0;stroke:#000000;stroke-width:0.529167;stroke-linecap:round;stroke-miterlimit:0;stroke-dasharray:none;stroke-opacity:1;paint-order:fill markers stroke" />
    </g>
  </g>
</svg>
